<svg width="240" height="60" viewBox="0 0 240 60" fill="none" xmlns="http://www.w3.org/2000/svg">
  <!-- Logo Icon Background -->
  <rect x="4" y="4" width="52" height="52" rx="16" fill="#2563eb"/>
  
  <!-- Speech Bubble -->
  <path d="M16 18c0-3.314 2.686-6 6-6h20c3.314 0 6 2.686 6 6v14c0 3.314-2.686 6-6 6h-14l-8 6v-6h-4c-3.314 0-6-2.686-6-6V18z" fill="white"/>
  
  <!-- Star Icon -->
  <path d="M30 16.5l2.121 4.379L37 21.5l-3.439 3.621L34.242 30L30 27.621L25.758 30l.681-4.879L22 21.5l4.879-.621L30 16.5z" fill="#10b981"/>
  
  <!-- ReviewMonitor Text -->
  <text x="68" y="26" font-family="-apple-system, BlinkMacSystemFont, 'Segoe UI', Roboto, sans-serif" font-size="20" font-weight="700" fill="#1e293b">ReviewMonitor</text>
  <text x="68" y="44" font-family="-apple-system, BlinkMacSystemFont, 'Segoe UI', Roboto, sans-serif" font-size="12" font-weight="500" fill="#64748b">Powered by The Solution Desk</text>
</svg>
